<?xml version="1.0" encoding="UTF-8"?>
<svg id="Layer_2" data-name="Layer 2" xmlns="http://www.w3.org/2000/svg" viewBox="0 0 338.99 73.47">
  <defs>
    <style>
      .cls-1 {
        fill: #fff;
      }
    </style>
  </defs>
  <g id="Layer_1" data-name="Layer 1">
    <g>
      <path class="cls-1" d="M25.91,26.32h13.45v37.88c0,6.07,2.13,9.27,2.13,9.27h-12.55s-1.07-2.87-1.07-10.74v-30.67h-13.94v30.75H2.46V17.22C2.46,4.1,0,.82,0,.82h12.3s1.64,1.64,1.64,16.4v9.27l11.15-17.47c2.62-4.02,3.28-8.2,3.28-8.2h12.3s-.16,3.44-3.28,8.2l-11.48,17.3Z"/>
      <path class="cls-1" d="M53.79,62.81V20.91c0-12.63,5.82-20.91,19.27-20.91s19.27,8.28,19.27,20.91v25.5c0,13.12,2.46,16.4,2.46,16.4h-12.3s-1.64-1.64-1.64-16.4v-14.35h-15.58v14.35c0,13.12.82,16.4.82,16.4h-12.3ZM65.27,26.32h15.58v-11.97c0-4.67-2.3-7.79-7.79-7.79s-7.79,3.12-7.79,7.79v11.97Z"/>
      <path class="cls-1" d="M134.07,57.07h4.92v-30.75h11.48v36.49h-16.4c-17.63,0-29.44-12.55-29.44-31.82S116.44.82,134.07.82h16.4v8.77c0,5.25.82,7.63.82,7.63h-2.46c-5.74,0-9.84-2.46-9.84-10.66h-4.92c-11.64,0-16.32,10.41-16.32,24.44s4.67,26.08,16.32,26.08Z"/>
      <path class="cls-1" d="M192.29,21.73c0-11.23-5.33-15.17-15.99-15.17h-1.23v41.08c0,10.25.82,15.17.82,15.17h-12.3V.82h11.73c17.79,0,28.45,5.74,28.45,25.01v20.58c0,13.12,2.46,16.4,2.46,16.4h-12.3s-1.64-1.64-1.64-16.4v-24.68Z"/>
      <path class="cls-1" d="M245.51.82h16.4v8.77c0,5.25.82,7.63.82,7.63h-2.46c-5.74,0-9.84-2.46-9.84-10.66h-4.92c-10.74,0-15.58,8.94-16.24,19.76h22.88v5.74h-22.96c.41,14.92,5.08,25.01,16.32,25.01h4.92c0-8.2,1.64-10.66,1.64-10.66h10.66s-.82,2.38-.82,7.63v8.77h-16.4c-17.63,0-29.44-11.73-29.44-31S227.88.82,245.51.82Z"/>
      <path class="cls-1" d="M338.99,43.54c0,12.63-5.82,20.91-19.27,20.91-11.07,0-13.53-6.97-13.53-6.97,0,0-2.46,6.97-13.53,6.97-13.45,0-19.27-8.28-19.27-20.91v-26.32c0-13.12-.82-16.4-.82-16.4h12.3v49.28c0,4.67,2.3,7.79,7.79,7.79s7.79-3.12,7.79-7.79V17.22c0-13.12-2.46-16.4-2.46-16.4h12.3s1.64,1.64,1.64,16.4v32.88c0,4.67,2.3,7.79,7.79,7.79s7.79-3.12,7.79-7.79V17.22c0-13.12-2.46-16.4-2.46-16.4h12.3s1.64,1.64,1.64,16.4v26.32Z"/>
    </g>
  </g>
</svg>